<svg width="256" height="256" viewBox="0 0 256 256" fill="none" xmlns="http://www.w3.org/2000/svg">
<g clip-path="url(#clip0_6_2)">
<rect width="256" height="256" fill="#61AFF4"/>
<path d="M55.68 213.28C54.72 213.28 54 213.04 53.52 212.56C53.04 211.92 52.96 211.28 53.28 210.64L99.6 48.88C99.92 47.92 100.64 47.12 101.76 46.48C103.04 45.84 104.48 45.52 106.08 45.52L147.84 45.04C149.6 45.04 151.36 45.52 153.12 46.48C154.88 47.28 156 48.32 156.48 49.6L200.88 207.52C201.04 207.68 201.12 208.08 201.12 208.72C201.12 209.68 200.56 210.56 199.44 211.36C198.48 212.16 197.2 212.56 195.6 212.56H169.68C168.4 212.56 167.6 212.16 167.28 211.36L159.12 170.08C158.8 169.44 158.32 169.04 157.68 168.88C157.04 168.72 156.4 168.72 155.76 168.88C155.28 168.88 154.8 168.88 154.32 168.88H103.68C103.04 168.88 102.4 169.04 101.76 169.36C101.12 169.68 100.64 170 100.32 170.32L92.16 210.4C91.68 212.64 89.76 213.76 86.4 213.76L55.68 213.28ZM105.12 134.56C105.12 135.68 105.36 136.48 105.84 136.96C106.48 137.44 107.68 137.76 109.44 137.92L123.12 138.16C133.68 138.16 140.88 138 144.72 137.68C147.44 137.36 149.12 136.96 149.76 136.48C150.56 135.84 150.88 134.24 150.72 131.68C150.56 129.12 148.4 119.04 144.24 101.44C142.96 96.32 141.36 91.04 139.44 85.6C137.68 80.16 136.64 76.88 136.32 75.76C135.2 72.56 134.24 70.64 133.44 70C132.8 69.2 131.44 68.72 129.36 68.56C128.4 68.4 127.76 68.32 127.44 68.32C127.28 68.16 127.2 68.08 127.2 68.08C126.88 68.24 125.92 68.4 124.32 68.56C121.28 68.72 119.28 69.2 118.32 70C117.52 70.64 116.8 72 116.16 74.08C116 74.56 115.12 77.84 113.52 83.92C111.92 89.84 110.16 97.68 108.24 107.44C106.48 117.04 105.44 125.6 105.12 133.12V134.56Z" fill="#003067"/>
</g>
<defs>
<clipPath id="clip0_6_2">
<rect width="256" height="256" fill="white"/>
</clipPath>
</defs>
</svg>
