<svg width="1440" height="1024" viewBox="0 0 1440 1024" fill="none" xmlns="http://www.w3.org/2000/svg">
<g clip-path="url(#clip0_98_150)">
<rect width="1440" height="1024" fill="#FEFEFE"/>
<g clip-path="url(#clip1_98_150)">
<path d="M1080 0V256L1440 0H1080Z" fill="#2C5BBA"/>
<path d="M1080 256V0H720L1080 256Z" fill="#2C5BBA"/>
<path d="M1080 256L720 512H1080V256Z" fill="#2C5BBA"/>
<path d="M1440 512V256H1080L1440 512Z" fill="#2C5BBA"/>
<path d="M720 0V256L360 0H720Z" fill="#2C5BBA"/>
<path d="M360 0L0 256H360V0Z" fill="#2C5BBA"/>
<path d="M0 512L360 256V512H0Z" fill="#2C5BBA"/>
<path d="M540 384L720 256H540V384Z" fill="#2C5BBA"/>
<path d="M540 384V256H360L540 384Z" fill="#2C5BBA"/>
<path d="M540 512H360V384L540 512Z" fill="#2C5BBA"/>
<path d="M540 512L720 384H540V512Z" fill="#2C5BBA"/>
<path d="M720 512V768H360L720 512Z" fill="#2C5BBA"/>
<path d="M0 768V512H360L0 768Z" fill="#2C5BBA"/>
<path d="M0 768H360V1024L0 768Z" fill="#2C5BBA"/>
<path d="M720 768V1024H360L720 768Z" fill="#2C5BBA"/>
<path d="M1080 768L1440 512V768H1080Z" fill="#2C5BBA"/>
<path d="M1080 640V512L900 640H1080Z" fill="#2C5BBA"/>
<path d="M900 512L720 640H900V512Z" fill="#2C5BBA"/>
<path d="M720 768H900V640L720 768Z" fill="#2C5BBA"/>
<path d="M1080 640V768H900L1080 640Z" fill="#2C5BBA"/>
<path d="M1080 768L720 1024V768H1080Z" fill="#2C5BBA"/>
<path d="M1440 768V1024L1080 768H1440Z" fill="#2C5BBA"/>
</g>
</g>
<defs>
<clipPath id="clip0_98_150">
<rect width="1440" height="1024" fill="white"/>
</clipPath>
<clipPath id="clip1_98_150">
<rect width="1440" height="1024" fill="white"/>
</clipPath>
</defs>
</svg>
